<svg width="24" height="24" viewBox="0 0 24 24" fill="none" xmlns="http://www.w3.org/2000/svg">
<path d="M12 7.24325C11.7612 7.24325 11.5676 7.04964 11.5676 6.81082C11.5676 6.572 11.7612 6.37839 12 6.37839" fill="#7879F1"/>
<path d="M12 7.24325C11.7612 7.24325 11.5676 7.04964 11.5676 6.81082C11.5676 6.572 11.7612 6.37839 12 6.37839" fill="#7879F1"/>
<path d="M12 7.24325C12.2388 7.24325 12.4324 7.04964 12.4324 6.81082C12.4324 6.572 12.2388 6.37839 12 6.37839" fill="#7879F1"/>
<path d="M12 7.24325C12.2388 7.24325 12.4324 7.04964 12.4324 6.81082C12.4324 6.572 12.2388 6.37839 12 6.37839" fill="#7879F1"/>
<path d="M9.40541 16.4324C8.98746 16.4324 8.64865 16.7712 8.64865 17.1892C8.64865 17.6071 8.98746 17.9459 9.40541 17.9459V16.4324ZM14.5946 17.9459C15.0125 17.9459 15.3514 17.6071 15.3514 17.1892C15.3514 16.7712 15.0125 16.4324 14.5946 16.4324V17.9459ZM11.2432 17.1892C11.2432 17.6071 11.5821 17.9459 12 17.9459C12.4179 17.9459 12.7568 17.6071 12.7568 17.1892H11.2432ZM12 11.1351H12.7568C12.7568 10.7172 12.4179 10.3784 12 10.3784V11.1351ZM10.2703 10.3784C9.85233 10.3784 9.51351 10.7172 9.51351 11.1351C9.51351 11.5531 9.85233 11.8919 10.2703 11.8919V10.3784ZM12 24C18.6275 24 24 18.6275 24 12H22.4865C22.4865 17.7916 17.7916 22.4865 12 22.4865V24ZM24 12C24 5.37259 18.6275 0 12 0V1.51351C17.7916 1.51351 22.4865 6.20847 22.4865 12H24ZM12 0C5.37259 0 0 5.37259 0 12H1.51351C1.51351 6.20848 6.20848 1.51351 12 1.51351V0ZM0 12C0 18.6275 5.37259 24 12 24V22.4865C6.20847 22.4865 1.51351 17.7916 1.51351 12H0ZM9.40541 17.9459H14.5946V16.4324H9.40541V17.9459ZM12.7568 17.1892V11.1351H11.2432V17.1892H12.7568ZM12 10.3784H10.2703V11.8919H12V10.3784ZM12 6.4865C12.1791 6.4865 12.3243 6.6317 12.3243 6.81082H10.8108C10.8108 7.46759 11.3432 8.00001 12 8.00001V6.4865ZM12.3243 6.81082C12.3243 6.98994 12.1791 7.13514 12 7.13514V5.62163C11.3432 5.62163 10.8108 6.15405 10.8108 6.81082H12.3243ZM12 8.00001C12.6568 8.00001 13.1892 7.46759 13.1892 6.81082H11.6757C11.6757 6.6317 11.8209 6.4865 12 6.4865V8.00001ZM13.1892 6.81082C13.1892 6.15405 12.6568 5.62163 12 5.62163V7.13514C11.8209 7.13514 11.6757 6.98994 11.6757 6.81082H13.1892Z" fill="#7879F1"/>
</svg>
