<svg width="21" height="19" viewBox="0 0 21 19" fill="none" xmlns="http://www.w3.org/2000/svg">
<path d="M6.5625 8.75C6.5625 9.44036 5.97487 10 5.25 10C4.52513 10 3.9375 9.44036 3.9375 8.75C3.9375 8.05964 4.52513 7.5 5.25 7.5C5.97487 7.5 6.5625 8.05964 6.5625 8.75Z" fill="#7879F1"/>
<path d="M11.8125 8.75C11.8125 9.44036 11.2249 10 10.5 10C9.77513 10 9.1875 9.44036 9.1875 8.75C9.1875 8.05964 9.77513 7.5 10.5 7.5C11.2249 7.5 11.8125 8.05964 11.8125 8.75Z" fill="#7879F1"/>
<path d="M15.75 10C16.4749 10 17.0625 9.44036 17.0625 8.75C17.0625 8.05964 16.4749 7.5 15.75 7.5C15.0251 7.5 14.4375 8.05964 14.4375 8.75C14.4375 9.44036 15.0251 10 15.75 10Z" fill="#7879F1"/>
<path d="M2.84112 18.5037L2.86767 18.4987C5.26882 18.0454 6.73754 17.4464 7.41935 17.1174C8.39354 17.3661 9.42801 17.5 10.5 17.5C16.299 17.5 21 13.5825 21 8.75C21 3.91751 16.299 0 10.5 0C4.70101 0 0 3.91751 0 8.75C0 10.9511 0.975268 12.9624 2.58534 14.5001C2.48845 15.4639 2.22367 16.498 1.8985 17.3976L1.8934 17.4118C1.85384 17.5208 1.8134 17.6279 1.77227 17.7326C1.70752 17.8974 1.64107 18.0564 1.57366 18.208C1.47048 18.4402 1.67043 18.7004 1.93163 18.6597C2.11659 18.6308 2.29687 18.601 2.47251 18.5704C2.59773 18.5486 2.72059 18.5263 2.84112 18.5037ZM3.89187 14.6192C3.92914 14.2485 3.79087 13.8812 3.51473 13.6174C2.12271 12.288 1.3125 10.5851 1.3125 8.75C1.3125 4.75943 5.25578 1.25 10.5 1.25C15.7442 1.25 19.6875 4.75943 19.6875 8.75C19.6875 12.7406 15.7442 16.25 10.5 16.25C9.54288 16.25 8.62269 16.1305 7.75927 15.91C7.44688 15.8302 7.11457 15.8631 6.82607 16.0023C6.31782 16.2476 5.19968 16.7151 3.36889 17.1181C3.61596 16.3148 3.80834 15.4501 3.89187 14.6192Z" fill="#7879F1"/>
</svg>
