<svg width="24" height="24" viewBox="0 0 24 24" fill="none" xmlns="http://www.w3.org/2000/svg">
<path d="M12 7.24325C11.7612 7.24325 11.5676 7.04964 11.5676 6.81082C11.5676 6.572 11.7612 6.37839 12 6.37839" fill="#7879F1"/>
<path d="M12 7.24325C11.7612 7.24325 11.5676 7.04964 11.5676 6.81082C11.5676 6.572 11.7612 6.37839 12 6.37839" fill="#7879F1"/>
<path d="M12 7.24325C12.2388 7.24325 12.4324 7.04964 12.4324 6.81082C12.4324 6.572 12.2388 6.37839 12 6.37839" fill="#7879F1"/>
<path d="M12 7.24325C12.2388 7.24325 12.4324 7.04964 12.4324 6.81082C12.4324 6.572 12.2388 6.37839 12 6.37839" fill="#7879F1"/>
<path d="M9.4054 17.1892H14.5946M12 17.1892V11.1351H10.2703M12 23.2432C18.2096 23.2432 23.2432 18.2096 23.2432 12C23.2432 5.79053 18.2096 0.756757 12 0.756757C5.79053 0.756757 0.756757 5.79053 0.756757 12C0.756757 18.2096 5.79053 23.2432 12 23.2432ZM12 7.24325C11.7612 7.24325 11.5676 7.04964 11.5676 6.81082C11.5676 6.572 11.7612 6.37839 12 6.37839C12.2388 6.37839 12.4324 6.572 12.4324 6.81082C12.4324 7.04964 12.2388 7.24325 12 7.24325Z" stroke="#7879F1" stroke-width="1.5" stroke-linecap="round" stroke-linejoin="round"/>
</svg>
