<svg width="21" height="21" viewBox="0 0 21 21" fill="none" xmlns="http://www.w3.org/2000/svg">
<path fill-rule="evenodd" clip-rule="evenodd" d="M13.4076 0.914767C14.6273 -0.304921 16.6048 -0.304923 17.8245 0.914766L20.0852 3.17552C21.3049 4.39521 21.3049 6.37272 20.0852 7.59241L12.1879 15.4897C11.9927 15.685 11.7279 15.7947 11.4518 15.7947H6.24642C5.67145 15.7947 5.20535 15.3286 5.20535 14.7536V9.54824C5.20535 9.27213 5.31503 9.00733 5.51027 8.81209L13.4076 0.914767ZM16.3522 2.38706C15.9456 1.9805 15.2865 1.9805 14.8799 2.38706L13.9651 3.30183L17.6982 7.03488L18.6129 6.12011C19.0195 5.71355 19.0195 5.05438 18.6129 4.64782L16.3522 2.38706ZM16.2259 8.50717L12.4928 4.77412L7.28748 9.97947V13.7125H11.0205L16.2259 8.50717ZM5.20535 2.26076C3.48045 2.26076 2.08214 3.65906 2.08214 5.38396V15.7947C2.08214 17.5196 3.48045 18.9179 5.20535 18.9179H15.616C17.3409 18.9179 18.7392 17.5196 18.7392 15.7947V12.6714C18.7392 12.0965 19.2053 11.6304 19.7803 11.6304C20.3553 11.6304 20.8214 12.0965 20.8214 12.6714V15.7947C20.8214 18.6695 18.4909 21 15.616 21H5.20535C2.33051 21 0 18.6695 0 15.7947V5.38396C0 2.50913 2.33051 0.178619 5.20535 0.178619H8.32855C8.90352 0.178619 9.36962 0.644721 9.36962 1.21969C9.36962 1.79465 8.90352 2.26076 8.32855 2.26076H5.20535Z" fill="#A5A6F6"/>
</svg>
