<svg width="26" height="26" viewBox="0 0 26 26" fill="none" xmlns="http://www.w3.org/2000/svg">
<path d="M0.667978 6.35968H25.332M7.86166 6.35968V5.41106C7.86166 4.15312 8.40301 2.94669 9.36664 2.05719C10.3303 1.16769 11.6372 0.667978 13 0.667978C14.3628 0.667978 15.6697 1.16769 16.6334 2.05719C17.597 2.94669 18.1383 4.15312 18.1383 5.41106V6.35968M9.91699 12.0542V19.646M16.083 12.0542V19.646M3.75098 6.35968H22.249V23.4348C22.249 23.9379 22.0324 24.4206 21.647 24.7763C21.2616 25.1321 20.7388 25.332 20.1937 25.332H5.80632C5.2612 25.332 4.73843 25.1321 4.35297 24.7763C3.96753 24.4206 3.75098 23.9379 3.75098 23.4348V6.35968Z" stroke="#A5A6F6" stroke-width="1.3" stroke-linecap="round" stroke-linejoin="round"/>
</svg>
